# xmcd
#
# Track frame offsets:
#	150
#	17537
#	35499
#	49942
#	68893
#	85145
#	103054
#	118498
#	143441
#	162150
#
# Disc length: 2393
#
# Revision: 2
# Processed by: cddbd v1.5.1PL0 Copyright (c) Steve Scherf et al.
# Submitted via: Grip 3.0.7
# Normalized: r1:TDELIM( - )
#
DISCID=8209570a
DTITLE=New Woman - Party Starter
DYEAR=2003
DGENRE=New Age
TTITLE0=Toploader - Dancing In The Moonlight
TTITLE1=Hockridge - What It Feels Like
TTITLE2=Wild Cherry - Play That Funky Music
TTITLE3=Capri - Car Chase On Phoenix Avenue
TTITLE4=Earth, Wind and Fire - September
TTITLE5=SPF 2000 - Let It Go (Disco Club Mix)
TTITLE6=Bangles - Walk Like An Egyptian
TTITLE7=Las Ketchup - Asereje (Chiringuito Club Mix)
TTITLE8=Bass Bug - Crunch
TTITLE9=Disco Moto - Disco Moto
EXTD=YEAR: 2003
EXTT0=
EXTT1=
EXTT2=
EXTT3=
EXTT4=
EXTT5=
EXTT6=
EXTT7=
EXTT8=
EXTT9=
PLAYORDER=
